<svg width="24" height="24" viewBox="0 0 24 24" fill="none" xmlns="http://www.w3.org/2000/svg">
<path d="M11.2682 17L15.3829 17.4375C17.1567 17.6262 18.5911 17.4219 19.6294 16.5795C20.6669 15.7376 21.1667 14.3735 21.356 12.5933L21.7955 8.46054C21.9848 6.68027 21.783 5.24161 20.9457 4.20036C20.1078 3.1584 18.7484 2.65712 16.9746 2.4685L12.8599 2.03099C11.0861 1.84237 9.65167 2.04658 8.61341 2.88905C7.57585 3.73093 7.07607 5.095 6.88678 6.87527L6.44733 11.008C6.25803 12.7883 6.45979 14.2269 7.29711 15.2682C8.135 16.3101 9.49441 16.8114 11.2682 17Z" fill="#4EDCD4" stroke="white" stroke-width="1.2" stroke-linecap="round" stroke-linejoin="round"/>
<path d="M7.3565 22.4846H11.7C13.569 22.4846 15.0334 22.1145 16.0153 21.1325C16.9973 20.1505 17.3674 18.6862 17.3674 16.8172V12.4737C17.3674 10.6047 16.9973 9.14034 16.0153 8.15835C15.0334 7.17637 13.569 6.80625 11.7 6.80625H7.3565C5.48752 6.80625 4.02315 7.17637 3.04117 8.15835C2.05918 9.14034 1.68906 10.6047 1.68906 12.4737V16.8172C1.68906 18.6862 2.05918 20.1505 3.04117 21.1325C4.02315 22.1145 5.48752 22.4846 7.3565 22.4846Z" fill="#4EDCD4" stroke="white" stroke-width="1.2" stroke-linecap="round" stroke-linejoin="round"/>
<path d="M11.3317 16.4034L15.4463 16.8409C18.8752 17.2055 20.3932 15.9738 20.7594 12.5298L21.1988 8.3971C21.565 4.95315 20.34 3.42974 16.9111 3.06514L12.7965 2.62762C9.36763 2.26303 7.84961 3.49476 7.48341 6.93871L7.04397 11.0714C6.67777 14.5154 7.90283 16.0388 11.3317 16.4034Z" fill="#4EDCD4" stroke="black" stroke-linecap="round" stroke-linejoin="round"/>
<path d="M7.3565 21.8846H11.7C15.3196 21.8846 16.7674 20.4368 16.7674 16.8172V12.4737C16.7674 8.85409 15.3196 7.40625 11.7 7.40625H7.3565C3.7369 7.40625 2.28906 8.85409 2.28906 12.4737V16.8172C2.28906 20.4368 3.7369 21.8846 7.3565 21.8846Z" fill="#4EDCD4" stroke="black" stroke-linecap="round" stroke-linejoin="round"/>
<path d="M7.35604 13.6926C8.4318 13.6926 9.30388 12.8205 9.30388 11.7447C9.30388 10.669 8.4318 9.79688 7.35604 9.79688C6.28028 9.79688 5.4082 10.669 5.4082 11.7447C5.4082 12.8205 6.28028 13.6926 7.35604 13.6926Z" fill="white" stroke="black" stroke-linecap="round" stroke-linejoin="round"/>
<path d="M2.80859 19.7634C2.81272 19.7724 2.81687 19.7814 2.82106 19.7904C3.43155 21.129 4.73773 21.8828 6.54792 21.8828H12.4967C15.0807 21.8828 16.6211 20.354 16.6211 17.7896V16.2347L15.3952 15.135C14.8385 14.7187 13.9934 14.737 13.4621 15.19L10.509 17.7051C9.95534 18.1771 9.06089 18.1771 8.50718 17.7051L8.26582 17.5078C7.76181 17.071 6.95965 17.0287 6.39175 17.4092L3.76188 19.1608L3.76106 19.1625L2.80859 19.7634Z" fill="white" stroke="black"/>
</svg>
